<?xml version="1.0" encoding="UTF-8" standalone="no"?>
<!-- Created with Inkscape (http://www.inkscape.org/) -->

<svg
   xmlns:dc="http://purl.org/dc/elements/1.1/"
   xmlns:cc="http://creativecommons.org/ns#"
   xmlns:rdf="http://www.w3.org/1999/02/22-rdf-syntax-ns#"
   xmlns:svg="http://www.w3.org/2000/svg"
   xmlns="http://www.w3.org/2000/svg"
   xmlns:sodipodi="http://sodipodi.sourceforge.net/DTD/sodipodi-0.dtd"
   xmlns:inkscape="http://www.inkscape.org/namespaces/inkscape"
   width="16"
   height="16"
   viewBox="0 0 4.2333332 4.2333335"
   version="1.1"
   id="svg8"
   inkscape:version="0.92.0 r15299"
   sodipodi:docname="两端连接.svg"
   inkscape:export-filename="C:\Users\Impossible\Desktop\两端连接.png"
   inkscape:export-xdpi="96.000008"
   inkscape:export-ydpi="96.000008">
  <defs
     id="defs2" />
  <sodipodi:namedview
     id="base"
     pagecolor="#ffffff"
     bordercolor="#666666"
     borderopacity="1.0"
     inkscape:pageopacity="0.0"
     inkscape:pageshadow="2"
     inkscape:zoom="15.839192"
     inkscape:cx="7.8745166"
     inkscape:cy="7.4371194"
     inkscape:document-units="mm"
     inkscape:current-layer="layer1"
     showgrid="false"
     units="px"
     inkscape:pagecheckerboard="true"
     inkscape:snap-global="false"
     inkscape:window-width="1366"
     inkscape:window-height="705"
     inkscape:window-x="-8"
     inkscape:window-y="-8"
     inkscape:window-maximized="1" />
  <metadata
     id="metadata5">
    <rdf:RDF>
      <cc:Work
         rdf:about="">
        <dc:format>image/svg+xml</dc:format>
        <dc:type
           rdf:resource="http://purl.org/dc/dcmitype/StillImage" />
        <dc:title />
      </cc:Work>
    </rdf:RDF>
  </metadata>
  <g
     inkscape:label="Layer 1"
     inkscape:groupmode="layer"
     id="layer1"
     transform="translate(0,-292.76665)">
    <path
       style="opacity:1;fill:#f70000;fill-opacity:0.84615383;stroke:#000000;stroke-width:0;stroke-miterlimit:4;stroke-dasharray:none;stroke-dashoffset:0;stroke-opacity:1"
       d="m 2.1247732,292.9309 a 1.9844887,1.9844852 0 0 0 -1.98410803,1.98411 1.9844887,1.9844852 0 0 0 1.98410803,1.98464 1.9844887,1.9844852 0 0 0 1.984641,-1.98464 1.9844887,1.9844852 0 0 0 -1.984641,-1.98411 z m 0,0.40162 a 1.582721,1.5827183 0 0 1 1.5830255,1.58249 1.582721,1.5827183 0 0 1 -1.5830255,1.58301 1.582721,1.5827183 0 0 1 -1.58249251,-1.58301 1.582721,1.5827183 0 0 1 1.58249251,-1.58249 z"
       id="path4484"
       inkscape:connector-curvature="0" />
    <path
       inkscape:connector-curvature="0"
       style="opacity:1;fill:#f70000;fill-opacity:0.85;stroke:#000000;stroke-width:0;stroke-miterlimit:4;stroke-dasharray:none;stroke-dashoffset:0;stroke-opacity:1"
       d="m 2.1247962,293.67752 a 1.2375125,1.2375103 0 0 0 -1.23744299,1.23793 1.2375125,1.2375103 0 0 0 1.23744299,1.23744 1.2375125,1.2375103 0 0 0 1.2379305,-1.23744 1.2375125,1.2375103 0 0 0 -1.2379305,-1.23793 z m 0,0.3902 a 0.84730605,0.84730457 0 0 1 0.8477239,0.84773 0.84730605,0.84730457 0 0 1 -0.8477239,0.84724 0.84730605,0.84730457 0 0 1 -0.8472362,-0.84724 0.84730605,0.84730457 0 0 1 0.8472362,-0.84773 z"
       id="path4505" />
  </g>
</svg>
