<?xml version="1.0" encoding="UTF-8" standalone="no"?>
<!-- Created with Inkscape (http://www.inkscape.org/) -->

<svg
   xmlns:dc="http://purl.org/dc/elements/1.1/"
   xmlns:cc="http://creativecommons.org/ns#"
   xmlns:rdf="http://www.w3.org/1999/02/22-rdf-syntax-ns#"
   xmlns:svg="http://www.w3.org/2000/svg"
   xmlns="http://www.w3.org/2000/svg"
   xmlns:sodipodi="http://sodipodi.sourceforge.net/DTD/sodipodi-0.dtd"
   xmlns:inkscape="http://www.inkscape.org/namespaces/inkscape"
   width="24"
   height="24"
   viewBox="0 0 6.3499999 6.3500002"
   version="1.1"
   id="svg8"
   inkscape:version="0.92.0 r15299"
   sodipodi:docname="选中.svg">
  <defs
     id="defs2" />
  <sodipodi:namedview
     id="base"
     pagecolor="#ffffff"
     bordercolor="#666666"
     borderopacity="1.0"
     inkscape:pageopacity="0.0"
     inkscape:pageshadow="2"
     inkscape:zoom="3.959798"
     inkscape:cx="-24.438239"
     inkscape:cy="12.731885"
     inkscape:document-units="mm"
     inkscape:current-layer="layer1"
     showgrid="false"
     inkscape:pagecheckerboard="true"
     units="px"
     inkscape:window-width="1366"
     inkscape:window-height="705"
     inkscape:window-x="-8"
     inkscape:window-y="-8"
     inkscape:window-maximized="1" />
  <metadata
     id="metadata5">
    <rdf:RDF>
      <cc:Work
         rdf:about="">
        <dc:format>image/svg+xml</dc:format>
        <dc:type
           rdf:resource="http://purl.org/dc/dcmitype/StillImage" />
        <dc:title></dc:title>
      </cc:Work>
    </rdf:RDF>
  </metadata>
  <g
     inkscape:label="Layer 1"
     inkscape:groupmode="layer"
     id="layer1"
     transform="translate(0,-290.64998)">
    <path
       style="opacity:1;fill:#37c837;fill-opacity:0.97297297;stroke:#000000;stroke-width:0.05;stroke-miterlimit:4;stroke-dasharray:none;stroke-dashoffset:0;stroke-opacity:1"
       d="M 3.175,290.79416 A 3.0308875,3.0308875 0 0 0 0.14417727,293.82499 3.0308875,3.0308875 0 0 0 3.175,296.85581 3.0308875,3.0308875 0 0 0 6.2058227,293.82499 3.0308875,3.0308875 0 0 0 3.175,290.79416 Z m 0,0.76223 a 2.2687738,2.2687738 0 0 1 2.2685955,2.2686 A 2.2687738,2.2687738 0 0 1 3.175,296.09358 2.2687738,2.2687738 0 0 1 0.90640472,293.82499 2.2687738,2.2687738 0 0 1 3.175,291.55639 Z"
       id="path4485"
       inkscape:connector-curvature="0" />
    <path
       style="opacity:1;fill:#37c837;fill-opacity:0.97297297;stroke:#000000;stroke-width:0.02042409;stroke-miterlimit:4;stroke-dasharray:none;stroke-dashoffset:0;stroke-opacity:1"
       d="m 4.7483638,292.3917 -2.0139982,2.014 c -0.1153208,0.11532 -0.300946,0.11532 -0.4162668,0 l -0.9363897,-0.93618 -0.3607508,0.36075 c -0.0962273,0.0962 -0.0962273,0.25101 0,0.34725 l 1.3585674,1.35856 c 0.096227,0.0962 0.2512249,0.0962 0.3474523,0 l 2.409156,-2.40937 c 0.096227,-0.0962 0.096227,-0.25101 0,-0.34724 z"
       id="rect4490"
       inkscape:connector-curvature="0" />
  </g>
</svg>
