<?xml version="1.0" encoding="UTF-8" standalone="no"?>
<!-- Created with Inkscape (http://www.inkscape.org/) -->

<svg
   xmlns:dc="http://purl.org/dc/elements/1.1/"
   xmlns:cc="http://creativecommons.org/ns#"
   xmlns:rdf="http://www.w3.org/1999/02/22-rdf-syntax-ns#"
   xmlns:svg="http://www.w3.org/2000/svg"
   xmlns="http://www.w3.org/2000/svg"
   xmlns:xlink="http://www.w3.org/1999/xlink"
   xmlns:sodipodi="http://sodipodi.sourceforge.net/DTD/sodipodi-0.dtd"
   xmlns:inkscape="http://www.inkscape.org/namespaces/inkscape"
   width="110"
   height="100"
   viewBox="0 0 29.104168 26.458332"
   version="1.1"
   id="svg8"
   inkscape:version="0.92.0 r15299"
   sodipodi:docname="棕.svg"
   inkscape:export-filename="C:\Users\Impossible\Desktop\绘图.png"
   inkscape:export-xdpi="25.4487"
   inkscape:export-ydpi="25.4487">
  <defs
     id="defs2">
    <linearGradient
       inkscape:collect="always"
       id="linearGradient4535">
      <stop
         style="stop-color:#c97b6b;stop-opacity:1;"
         offset="0"
         id="stop4531" />
      <stop
         style="stop-color:#c97b6b;stop-opacity:0;"
         offset="1"
         id="stop4533" />
    </linearGradient>
    <linearGradient
       inkscape:collect="always"
       id="linearGradient4592">
      <stop
         style="stop-color:#b2ffe5;stop-opacity:1;"
         offset="0"
         id="stop4588" />
      <stop
         style="stop-color:#b2ffe5;stop-opacity:0;"
         offset="1"
         id="stop4590" />
    </linearGradient>
    <linearGradient
       inkscape:collect="always"
       xlink:href="#linearGradient4592"
       id="linearGradient4594"
       x1="-901.05609"
       y1="1091.5876"
       x2="-2788.021"
       y2="1091.5876"
       gradientUnits="userSpaceOnUse"
       gradientTransform="matrix(0.24673105,0,0,0.20976466,-27.161257,-159.83096)" />
    <linearGradient
       inkscape:collect="always"
       xlink:href="#linearGradient4535"
       id="linearGradient4537"
       x1="-73.42852"
       y1="271.3024"
       x2="-73.241432"
       y2="288.32745"
       gradientUnits="userSpaceOnUse" />
    <linearGradient
       inkscape:collect="always"
       xlink:href="#linearGradient4535"
       id="linearGradient4541"
       gradientUnits="userSpaceOnUse"
       x1="-73.42852"
       y1="271.3024"
       x2="-73.241432"
       y2="288.32745"
       gradientTransform="matrix(1,0,0,-1,0,569.72407)" />
  </defs>
  <sodipodi:namedview
     id="base"
     pagecolor="#ffffff"
     bordercolor="#666666"
     borderopacity="1.0"
     inkscape:pageopacity="0.0"
     inkscape:pageshadow="2"
     inkscape:zoom="2.8284271"
     inkscape:cx="-19.079721"
     inkscape:cy="34.346484"
     inkscape:document-units="mm"
     inkscape:current-layer="g4564"
     showgrid="false"
     inkscape:pagecheckerboard="true"
     inkscape:snap-global="false"
     inkscape:window-width="1366"
     inkscape:window-height="705"
     inkscape:window-x="-8"
     inkscape:window-y="-8"
     inkscape:window-maximized="1"
     units="px"
     inkscape:snap-bbox="true"
     inkscape:lockguides="false" />
  <metadata
     id="metadata5">
    <rdf:RDF>
      <cc:Work
         rdf:about="">
        <dc:format>image/svg+xml</dc:format>
        <dc:type
           rdf:resource="http://purl.org/dc/dcmitype/StillImage" />
        <dc:title />
      </cc:Work>
    </rdf:RDF>
  </metadata>
  <g
     inkscape:label="Layer 1"
     inkscape:groupmode="layer"
     id="layer1"
     transform="translate(0,-270.54169)">
    <ellipse
       style="opacity:0.55100002;fill:#0b75b7;fill-opacity:0;stroke:none;stroke-width:3;stroke-miterlimit:4;stroke-dasharray:none;stroke-dashoffset:0;stroke-opacity:0.92156863"
       id="path4489"
       cx="-20.094038"
       cy="272.86581"
       rx="4.0224066"
       ry="4.3498116" />
    <circle
       style="opacity:0.55100002;fill:#0b75b7;fill-opacity:0;stroke:none;stroke-width:3;stroke-miterlimit:4;stroke-dasharray:none;stroke-dashoffset:0;stroke-opacity:0.92156863"
       id="path4493"
       cx="-20.187582"
       cy="276.935"
       r="3.8353179" />
    <g
       id="g4564"
       transform="translate(74.083333,6.6145833)">
      <g
         id="g4552"
         transform="translate(44.994825,-7.6706355)">
        <path
           sodipodi:nodetypes="cccccscccs"
           style="opacity:1;fill:#c98569;fill-opacity:1;stroke:none;stroke-width:1.79358482;stroke-miterlimit:4;stroke-dasharray:none;stroke-dashoffset:0;stroke-opacity:0.92156863"
           d="m -94.168512,271.76598 c -2.192573,0.0186 -4.146239,5.87168 -4.137693,13.07317 0.04523,7.93695 1.971078,13.05041 4.137693,13.11841 2.192516,-0.0186 3.993883,-5.98457 3.985412,-13.18589 -0.0085,-7.20148 -1.792839,-13.02439 -3.985412,-13.00569 z m 0.0038,0.98233 c 1.703706,-0.0147 2.907079,6.37378 2.913722,11.9696 0.0066,5.59579 -1.186027,12.32442 -2.889724,12.33872 -1.703622,0.0143 -3.090039,-6.62942 -3.096681,-12.22499 -0.0066,-5.59555 1.369052,-12.06869 3.072683,-12.08333 z"
           id="path4713"
           inkscape:connector-curvature="0" />
        <path
           inkscape:connector-curvature="0"
           id="path4781"
           d="m -114.90097,271.77555 c 2.18957,0.0185 4.14058,5.87177 4.13204,13.07336 -0.0451,7.93706 -1.96839,13.05058 -4.13204,13.11858 -2.18952,-0.0185 -3.98843,-5.98464 -3.97997,-13.18606 0.008,-7.20158 1.79039,-13.02459 3.97997,-13.00588 z m -0.004,0.98233 c -1.70137,-0.0147 -2.90311,6.37389 -2.90975,11.96978 -0.007,5.59587 1.18442,12.32459 2.88579,12.33889 1.70129,0.0143 3.08582,-6.62952 3.09246,-12.22517 0.007,-5.59562 -1.36721,-12.06885 -3.0685,-12.0835 z"
           style="opacity:1;fill:#c98469;fill-opacity:1;stroke:none;stroke-width:1.7923727;stroke-miterlimit:4;stroke-dasharray:none;stroke-dashoffset:0;stroke-opacity:0.92156863"
           sodipodi:nodetypes="cccccscccs" />
        <g
           transform="translate(-31.71153)"
           id="g4545">
          <path
             sodipodi:nodetypes="ccscscccccsccc"
             inkscape:connector-curvature="0"
             id="path4809"
             d="m -83.079393,297.9589 -0.11021,-0.0403 c 1.54963,-0.30908 2.88639,-3.36174 3.45957,-7.6375 0.21903,-1.63392 0.31942,-3.53131 0.45232,-5.42733 -0.22085,-5.13513 -0.95042,-9.7752 -2.33556,-11.871 -0.44885,-0.67915 -0.9434,-1.10094 -1.46616,-1.20521 l -0.15424,-0.0124 h 20.643047 l -0.04673,0.0289 c -2.121314,0.4779 -3.923151,6.18054 -3.925394,13.05967 8.5e-5,3.94323 0.530522,7.61824 1.457968,10.0285 0.691697,1.79758 1.489099,2.83978 2.395978,3.04408 l 0.320738,0.0326 z"
             style="opacity:1;fill:url(#linearGradient4537);fill-opacity:1;stroke:#000000;stroke-width:0;stroke-miterlimit:4;stroke-dasharray:none;stroke-dashoffset:0;stroke-opacity:1" />
          <path
             style="opacity:1;fill:url(#linearGradient4541);fill-opacity:1;stroke:#000000;stroke-width:0;stroke-miterlimit:4;stroke-dasharray:none;stroke-dashoffset:0;stroke-opacity:1"
             d="m -83.079393,271.76517 -0.11021,0.0403 c 1.54963,0.30908 2.88639,3.36174 3.45957,7.6375 0.21903,1.63392 0.31942,3.53131 0.45232,5.42733 -0.22085,5.13513 -0.95042,9.7752 -2.33556,11.871 -0.44885,0.67915 -0.9434,1.10094 -1.46616,1.20521 l -0.15424,0.0124 h 20.643047 l -0.04673,-0.0289 c -2.121314,-0.4779 -3.923151,-6.18054 -3.925394,-13.05967 8.5e-5,-3.94323 0.530522,-7.61824 1.457968,-10.0285 0.691697,-1.79758 1.489099,-2.83978 2.395978,-3.04408 l 0.320738,-0.0326 z"
             id="path4539"
             inkscape:connector-curvature="0"
             sodipodi:nodetypes="ccscscccccsccc" />
        </g>
      </g>
    </g>
  </g>
</svg>
