<?xml version="1.0" encoding="UTF-8" standalone="no"?>
<!-- Created with Inkscape (http://www.inkscape.org/) -->

<svg
   xmlns:dc="http://purl.org/dc/elements/1.1/"
   xmlns:cc="http://creativecommons.org/ns#"
   xmlns:rdf="http://www.w3.org/1999/02/22-rdf-syntax-ns#"
   xmlns:svg="http://www.w3.org/2000/svg"
   xmlns="http://www.w3.org/2000/svg"
   xmlns:xlink="http://www.w3.org/1999/xlink"
   xmlns:sodipodi="http://sodipodi.sourceforge.net/DTD/sodipodi-0.dtd"
   xmlns:inkscape="http://www.inkscape.org/namespaces/inkscape"
   width="110"
   height="100"
   viewBox="0 0 29.104168 26.458332"
   version="1.1"
   id="svg8"
   inkscape:version="0.92.0 r15299"
   sodipodi:docname="蓝.svg"
   inkscape:export-filename="C:\Users\Impossible\Desktop\绘图.png"
   inkscape:export-xdpi="25.4487"
   inkscape:export-ydpi="25.4487">
  <defs
     id="defs2">
    <linearGradient
       inkscape:collect="always"
       id="linearGradient4547">
      <stop
         style="stop-color:#0c76b8;stop-opacity:1;"
         offset="0"
         id="stop4543" />
      <stop
         style="stop-color:#0c76b8;stop-opacity:0;"
         offset="1"
         id="stop4545" />
    </linearGradient>
    <linearGradient
       inkscape:collect="always"
       id="linearGradient4592">
      <stop
         style="stop-color:#b2ffe5;stop-opacity:1;"
         offset="0"
         id="stop4588" />
      <stop
         style="stop-color:#b2ffe5;stop-opacity:0;"
         offset="1"
         id="stop4590" />
    </linearGradient>
    <linearGradient
       inkscape:collect="always"
       xlink:href="#linearGradient4592"
       id="linearGradient4594"
       x1="-901.05609"
       y1="1091.5876"
       x2="-2788.021"
       y2="1091.5876"
       gradientUnits="userSpaceOnUse"
       gradientTransform="matrix(0.24673105,0,0,0.20976466,-27.161257,-159.83096)" />
    <linearGradient
       inkscape:collect="always"
       xlink:href="#linearGradient4547"
       id="linearGradient4807"
       x1="97.779762"
       y1="270.01251"
       x2="97.498955"
       y2="287.21045"
       gradientUnits="userSpaceOnUse"
       gradientTransform="matrix(0.94221129,0,0,1,-77.561866,0.13230034)" />
    <linearGradient
       inkscape:collect="always"
       xlink:href="#linearGradient4547"
       id="linearGradient4819"
       gradientUnits="userSpaceOnUse"
       gradientTransform="matrix(0.94221129,0,0,-1,-77.484671,567.40942)"
       x1="97.498955"
       y1="270.14481"
       x2="97.358543"
       y2="286.01984" />
  </defs>
  <sodipodi:namedview
     id="base"
     pagecolor="#ffffff"
     bordercolor="#666666"
     borderopacity="1.0"
     inkscape:pageopacity="0.0"
     inkscape:pageshadow="2"
     inkscape:zoom="2.8284271"
     inkscape:cx="47.12504"
     inkscape:cy="52.969807"
     inkscape:document-units="mm"
     inkscape:current-layer="layer1"
     showgrid="false"
     inkscape:pagecheckerboard="true"
     inkscape:snap-global="true"
     inkscape:window-width="1366"
     inkscape:window-height="705"
     inkscape:window-x="-8"
     inkscape:window-y="-8"
     inkscape:window-maximized="1"
     units="px"
     inkscape:snap-bbox="true" />
  <metadata
     id="metadata5">
    <rdf:RDF>
      <cc:Work
         rdf:about="">
        <dc:format>image/svg+xml</dc:format>
        <dc:type
           rdf:resource="http://purl.org/dc/dcmitype/StillImage" />
        <dc:title />
      </cc:Work>
    </rdf:RDF>
  </metadata>
  <g
     inkscape:label="Layer 1"
     inkscape:groupmode="layer"
     id="layer1"
     transform="translate(0,-270.54169)">
    <ellipse
       style="opacity:0.55100002;fill:#0b75b7;fill-opacity:0;stroke:none;stroke-width:3;stroke-miterlimit:4;stroke-dasharray:none;stroke-dashoffset:0;stroke-opacity:0.92156863"
       id="path4489"
       cx="-20.953932"
       cy="277.49603"
       rx="4.0224066"
       ry="4.3498116" />
    <circle
       style="opacity:0.55100002;fill:#0b75b7;fill-opacity:0;stroke:none;stroke-width:3;stroke-miterlimit:4;stroke-dasharray:none;stroke-dashoffset:0;stroke-opacity:0.92156863"
       id="path4493"
       cx="-21.047476"
       cy="281.56522"
       r="3.8353179" />
    <g
       id="g4829"
       transform="translate(0.28431314,0.03512726)">
      <path
         sodipodi:nodetypes="cccccscccs"
         style="opacity:1;fill:#6f9ab8;fill-opacity:1;stroke:none;stroke-width:1.79358482;stroke-miterlimit:4;stroke-dasharray:none;stroke-dashoffset:0;stroke-opacity:0.92156863"
         d="m 24.905971,270.6748 c -2.192573,0.0186 -4.146239,5.87168 -4.137693,13.07317 0.04523,7.93695 1.971078,13.05041 4.137693,13.11841 2.192516,-0.0186 3.993883,-5.98457 3.985412,-13.18589 -0.0085,-7.20148 -1.792839,-13.02439 -3.985412,-13.00569 z m 0.0038,0.98233 c 1.703706,-0.0147 2.907079,6.37378 2.913722,11.9696 0.0066,5.59579 -1.186027,12.32442 -2.889724,12.33872 -1.703622,0.0143 -3.090039,-6.62942 -3.096681,-12.22499 -0.0066,-5.59555 1.369052,-12.06869 3.072683,-12.08333 z"
         id="path4713"
         inkscape:connector-curvature="0" />
      <path
         inkscape:connector-curvature="0"
         id="path4781"
         d="m 3.8928784,270.68437 c 2.1895766,0.0185 4.1405852,5.87177 4.1320394,13.07336 -0.045132,7.93706 -1.9683925,13.05058 -4.1320394,13.11858 -2.18952,-0.0185 -3.98842751,-5.98464 -3.97996645,-13.18606 0.00848,-7.20158 1.79038995,-13.02459 3.97996645,-13.00588 z m -0.00377,0.98233 c -1.7013698,-0.0147 -2.90310374,6.37389 -2.90974634,11.96978 -0.0066,5.59587 1.18441614,12.32459 2.88578594,12.33889 1.7012944,0.0143 3.0858173,-6.62952 3.0924599,-12.22517 0.0066,-5.59562 -1.3672051,-12.06885 -3.0684995,-12.0835 z"
         style="opacity:1;fill:#6f9ab8;fill-opacity:1;stroke:none;stroke-width:1.7923727;stroke-miterlimit:4;stroke-dasharray:none;stroke-dashoffset:0;stroke-opacity:0.92156863"
         sodipodi:nodetypes="cccccscccs" />
      <path
         sodipodi:nodetypes="ccccccccccc"
         inkscape:connector-curvature="0"
         id="rect4783"
         d="m 4.206381,270.67399 -0.093467,0.0403 c 2.134608,0.42576 3.89268,6.1462 3.8952051,13.06483 -6.689e-4,6.92302 -1.6657542,12.65018 -3.8017189,13.07621 v 0.0124 H 24.695208 l -0.04673,-0.0289 c -2.121313,-0.4779 -3.829674,-6.18054 -3.831917,-13.05967 1.51e-4,-6.8841 1.709068,-12.59434 3.831917,-13.07258 l 0.342776,-0.0326 z"
         style="opacity:1;fill:url(#linearGradient4807);fill-opacity:1;stroke:#000000;stroke-width:0;stroke-miterlimit:4;stroke-dasharray:none;stroke-dashoffset:0;stroke-opacity:1" />
      <path
         style="opacity:1;fill:url(#linearGradient4819);fill-opacity:1;stroke:#000000;stroke-width:0;stroke-miterlimit:4;stroke-dasharray:none;stroke-dashoffset:0;stroke-opacity:1"
         d="m 4.2835571,296.86772 -0.1102104,-0.0403 c 1.549636,-0.30908 2.8863889,-3.36174 3.4595737,-7.6375 0.2190264,-1.63392 0.3194191,-3.53131 0.452318,-5.42733 -0.2208449,-5.13513 -0.950418,-9.7752 -2.3355534,-11.871 -0.4488506,-0.67915 -0.9434079,-1.10094 -1.4661656,-1.20521 l -0.1542399,-0.0124 H 24.772327 l -0.04673,0.0289 c -2.121314,0.4779 -3.923151,6.18054 -3.925394,13.05967 8.5e-5,3.94323 0.530522,7.61824 1.457968,10.0285 0.691697,1.79758 1.489099,2.83978 2.395978,3.04408 l 0.320738,0.0326 z"
         id="path4809"
         inkscape:connector-curvature="0"
         sodipodi:nodetypes="ccscscccccsccc" />
    </g>
  </g>
</svg>
