<?xml version="1.0" encoding="UTF-8" standalone="no"?>
<!-- Created with Inkscape (http://www.inkscape.org/) -->

<svg
   xmlns:dc="http://purl.org/dc/elements/1.1/"
   xmlns:cc="http://creativecommons.org/ns#"
   xmlns:rdf="http://www.w3.org/1999/02/22-rdf-syntax-ns#"
   xmlns:svg="http://www.w3.org/2000/svg"
   xmlns="http://www.w3.org/2000/svg"
   xmlns:xlink="http://www.w3.org/1999/xlink"
   xmlns:sodipodi="http://sodipodi.sourceforge.net/DTD/sodipodi-0.dtd"
   xmlns:inkscape="http://www.inkscape.org/namespaces/inkscape"
   width="110"
   height="100"
   viewBox="0 0 29.104168 26.458332"
   version="1.1"
   id="svg8"
   inkscape:version="0.92.0 r15299"
   sodipodi:docname="绿.svg"
   inkscape:export-filename="C:\Users\Impossible\Desktop\绘图.png"
   inkscape:export-xdpi="25.4487"
   inkscape:export-ydpi="25.4487">
  <defs
     id="defs2">
    <linearGradient
       inkscape:collect="always"
       id="linearGradient4539">
      <stop
         style="stop-color:#00c251;stop-opacity:1;"
         offset="0"
         id="stop4535" />
      <stop
         style="stop-color:#00c251;stop-opacity:0;"
         offset="1"
         id="stop4537" />
    </linearGradient>
    <linearGradient
       inkscape:collect="always"
       id="linearGradient4592">
      <stop
         style="stop-color:#b2ffe5;stop-opacity:1;"
         offset="0"
         id="stop4588" />
      <stop
         style="stop-color:#b2ffe5;stop-opacity:0;"
         offset="1"
         id="stop4590" />
    </linearGradient>
    <linearGradient
       inkscape:collect="always"
       xlink:href="#linearGradient4592"
       id="linearGradient4594"
       x1="-901.05609"
       y1="1091.5876"
       x2="-2788.021"
       y2="1091.5876"
       gradientUnits="userSpaceOnUse"
       gradientTransform="matrix(0.24673105,0,0,0.20976466,-27.161257,-159.83096)" />
    <linearGradient
       inkscape:collect="always"
       xlink:href="#linearGradient4539"
       id="linearGradient4541"
       x1="23.283333"
       y1="266.17606"
       x2="23.151041"
       y2="284.56461"
       gradientUnits="userSpaceOnUse"
       gradientTransform="translate(-0.59808267,7.541445)" />
    <linearGradient
       inkscape:collect="always"
       xlink:href="#linearGradient4539"
       id="linearGradient4545"
       gradientUnits="userSpaceOnUse"
       x1="23.283333"
       y1="266.17606"
       x2="23.151041"
       y2="284.56461"
       gradientTransform="matrix(1,0,0,-1,-0.59808267,567.13707)" />
  </defs>
  <sodipodi:namedview
     id="base"
     pagecolor="#ffffff"
     bordercolor="#666666"
     borderopacity="1.0"
     inkscape:pageopacity="0.0"
     inkscape:pageshadow="2"
     inkscape:zoom="4"
     inkscape:cx="45.778234"
     inkscape:cy="23.361578"
     inkscape:document-units="mm"
     inkscape:current-layer="layer1"
     showgrid="false"
     inkscape:pagecheckerboard="true"
     inkscape:snap-global="true"
     inkscape:window-width="1366"
     inkscape:window-height="705"
     inkscape:window-x="-8"
     inkscape:window-y="-8"
     inkscape:window-maximized="1"
     units="px"
     inkscape:snap-bbox="true" />
  <metadata
     id="metadata5">
    <rdf:RDF>
      <cc:Work
         rdf:about="">
        <dc:format>image/svg+xml</dc:format>
        <dc:type
           rdf:resource="http://purl.org/dc/dcmitype/StillImage" />
        <dc:title />
      </cc:Work>
    </rdf:RDF>
  </metadata>
  <g
     inkscape:label="Layer 1"
     inkscape:groupmode="layer"
     id="layer1"
     transform="translate(0,-270.54169)">
    <ellipse
       style="opacity:0.55100002;fill:#0b75b7;fill-opacity:0;stroke:none;stroke-width:3;stroke-miterlimit:4;stroke-dasharray:none;stroke-dashoffset:0;stroke-opacity:0.92156863"
       id="path4489"
       cx="-17.845078"
       cy="274.45331"
       rx="4.0224066"
       ry="4.3498116" />
    <g
       id="g4552"
       transform="translate(-8.334375,-3.5057291)">
      <circle
         r="3.8353179"
         cy="272.56937"
         cx="16.060337"
         id="path4493"
         style="opacity:0.55100002;fill:#0b75b7;fill-opacity:0;stroke:none;stroke-width:3;stroke-miterlimit:4;stroke-dasharray:none;stroke-dashoffset:0;stroke-opacity:0.92156863" />
      <path
         sodipodi:nodetypes="cccccscccs"
         style="opacity:1;fill:#00c251;fill-opacity:1;stroke:none;stroke-width:1.79358482;stroke-miterlimit:4;stroke-dasharray:none;stroke-dashoffset:0;stroke-opacity:0.92156863"
         d="m 33.320014,274.24239 c -2.192573,0.0186 -4.146239,5.87168 -4.137693,13.07317 0.04523,7.93695 1.971078,13.05041 4.137693,13.1184 2.192516,-0.0186 3.993883,-5.98457 3.985412,-13.18589 -0.0085,-7.20148 -1.792839,-13.02439 -3.985412,-13.00568 z m 0.0038,0.98232 c 1.703706,-0.0147 2.907079,6.37379 2.913722,11.96961 0.0066,5.59579 -1.186027,12.32441 -2.889724,12.33872 -1.703622,0.0143 -3.090039,-6.62942 -3.096681,-12.22499 -0.0066,-5.59555 1.369052,-12.06869 3.072683,-12.08334 z"
         id="path4713"
         inkscape:connector-curvature="0" />
      <path
         inkscape:connector-curvature="0"
         id="path4781"
         d="m 12.641773,274.25195 c 2.189577,0.0185 4.140586,5.87178 4.13204,13.07336 -0.04513,7.93706 -1.968393,13.05059 -4.13204,13.11858 -2.18952,-0.0185 -3.988427,-5.98464 -3.979966,-13.18606 0.0085,-7.20157 1.79039,-13.02459 3.979966,-13.00588 z m -0.0038,0.98233 c -1.701369,-0.0147 -2.903103,6.3739 -2.909746,11.96979 -0.0066,5.59586 1.184416,12.32459 2.885786,12.33888 1.701294,0.0143 3.085817,-6.62952 3.09246,-12.22516 0.0066,-5.59562 -1.367205,-12.06885 -3.0685,-12.08351 z"
         style="opacity:1;fill:#00c251;fill-opacity:1;stroke:none;stroke-width:1.7923727;stroke-miterlimit:4;stroke-dasharray:none;stroke-dashoffset:0;stroke-opacity:0.92156863"
         sodipodi:nodetypes="cccccscccs" />
      <path
         style="opacity:1;fill:url(#linearGradient4541);fill-opacity:1;stroke:#000000;stroke-width:0;stroke-miterlimit:4;stroke-dasharray:none;stroke-dashoffset:0;stroke-opacity:1"
         d="m 12.831244,300.43612 -0.11021,-0.0403 c 1.549636,-0.30908 2.886389,-3.36174 3.459573,-7.63749 0.219027,-1.63392 0.31942,-3.53132 0.452318,-5.42733 -0.220844,-5.13513 -0.950418,-9.7752 -2.335553,-11.871 -0.448851,-0.67915 -0.943408,-1.10094 -1.466166,-1.20521 l -0.15424,-0.0124 h 20.643048 l -0.04673,0.0289 c -2.121314,0.47789 -3.923151,6.18054 -3.925394,13.05967 8.5e-5,3.94322 0.530522,7.61824 1.457968,10.0285 0.691697,1.79757 1.489099,2.83978 2.395978,3.04408 l 0.320738,0.0326 z"
         id="path4809"
         inkscape:connector-curvature="0"
         sodipodi:nodetypes="ccscscccccsccc" />
      <path
         sodipodi:nodetypes="ccscscccccsccc"
         inkscape:connector-curvature="0"
         id="path4543"
         d="m 12.831244,274.24239 -0.11021,0.0403 c 1.549636,0.30908 2.886389,3.36174 3.459573,7.6375 0.219027,1.63392 0.31942,3.53131 0.452318,5.42733 -0.220844,5.13513 -0.950418,9.7752 -2.335553,11.871 -0.448851,0.67915 -0.943408,1.10094 -1.466166,1.20521 l -0.15424,0.0124 h 20.643048 l -0.04673,-0.0289 c -2.121314,-0.4779 -3.923151,-6.18054 -3.925394,-13.05967 8.5e-5,-3.94323 0.530522,-7.61824 1.457968,-10.0285 0.691697,-1.79758 1.489099,-2.83978 2.395978,-3.04408 l 0.320738,-0.0326 z"
         style="opacity:1;fill:url(#linearGradient4545);fill-opacity:1;stroke:#000000;stroke-width:0;stroke-miterlimit:4;stroke-dasharray:none;stroke-dashoffset:0;stroke-opacity:1" />
    </g>
  </g>
</svg>
