<?xml version="1.0" encoding="UTF-8" standalone="no"?>
<!-- Created with Inkscape (http://www.inkscape.org/) -->

<svg
   xmlns:dc="http://purl.org/dc/elements/1.1/"
   xmlns:cc="http://creativecommons.org/ns#"
   xmlns:rdf="http://www.w3.org/1999/02/22-rdf-syntax-ns#"
   xmlns:svg="http://www.w3.org/2000/svg"
   xmlns="http://www.w3.org/2000/svg"
   xmlns:xlink="http://www.w3.org/1999/xlink"
   xmlns:sodipodi="http://sodipodi.sourceforge.net/DTD/sodipodi-0.dtd"
   xmlns:inkscape="http://www.inkscape.org/namespaces/inkscape"
   width="110"
   height="100"
   viewBox="0 0 29.104168 26.458332"
   version="1.1"
   id="svg8"
   inkscape:version="0.92.0 r15299"
   sodipodi:docname="青绿.svg"
   inkscape:export-filename="C:\Users\Impossible\Desktop\绘图.png"
   inkscape:export-xdpi="25.4487"
   inkscape:export-ydpi="25.4487">
  <defs
     id="defs2">
    <linearGradient
       inkscape:collect="always"
       id="linearGradient4518">
      <stop
         style="stop-color:#bed52a;stop-opacity:1;"
         offset="0"
         id="stop4514" />
      <stop
         style="stop-color:#bed52a;stop-opacity:0;"
         offset="1"
         id="stop4516" />
    </linearGradient>
    <linearGradient
       inkscape:collect="always"
       id="linearGradient4708">
      <stop
         style="stop-color:#808080;stop-opacity:1;"
         offset="0"
         id="stop4704" />
      <stop
         style="stop-color:#808080;stop-opacity:0;"
         offset="1"
         id="stop4706" />
    </linearGradient>
    <linearGradient
       inkscape:collect="always"
       id="linearGradient4592">
      <stop
         style="stop-color:#b2ffe5;stop-opacity:1;"
         offset="0"
         id="stop4588" />
      <stop
         style="stop-color:#b2ffe5;stop-opacity:0;"
         offset="1"
         id="stop4590" />
    </linearGradient>
    <linearGradient
       inkscape:collect="always"
       xlink:href="#linearGradient4592"
       id="linearGradient4594"
       x1="-901.05609"
       y1="1091.5876"
       x2="-2788.021"
       y2="1091.5876"
       gradientUnits="userSpaceOnUse"
       gradientTransform="matrix(0.24673105,0,0,0.20976466,-27.161257,-159.83096)" />
    <linearGradient
       inkscape:collect="always"
       xlink:href="#linearGradient4708"
       id="linearGradient4778"
       gradientUnits="userSpaceOnUse"
       x1="-10.383421"
       y1="261.07901"
       x2="-10.102788"
       y2="303.17395"
       gradientTransform="matrix(0.9931523,0,0,1.0018692,33.734811,-0.47836395)" />
    <linearGradient
       inkscape:collect="always"
       xlink:href="#linearGradient4518"
       id="linearGradient4520"
       x1="-37.703125"
       y1="268.8219"
       x2="-37.967709"
       y2="290.12085"
       gradientUnits="userSpaceOnUse"
       gradientTransform="translate(0,12.898435)" />
    <linearGradient
       inkscape:collect="always"
       xlink:href="#linearGradient4518"
       id="linearGradient4524"
       gradientUnits="userSpaceOnUse"
       x1="-37.703125"
       y1="268.8219"
       x2="-37.967709"
       y2="290.12085"
       gradientTransform="matrix(1,0,0,-1,0,580.48968)" />
  </defs>
  <sodipodi:namedview
     id="base"
     pagecolor="#ffffff"
     bordercolor="#666666"
     borderopacity="1.0"
     inkscape:pageopacity="0.0"
     inkscape:pageshadow="2"
     inkscape:zoom="2"
     inkscape:cx="-77.480664"
     inkscape:cy="15.353964"
     inkscape:document-units="mm"
     inkscape:current-layer="layer1"
     showgrid="false"
     inkscape:pagecheckerboard="true"
     inkscape:snap-global="true"
     inkscape:window-width="1366"
     inkscape:window-height="705"
     inkscape:window-x="-8"
     inkscape:window-y="-8"
     inkscape:window-maximized="1"
     units="px"
     inkscape:snap-bbox="true" />
  <metadata
     id="metadata5">
    <rdf:RDF>
      <cc:Work
         rdf:about="">
        <dc:format>image/svg+xml</dc:format>
        <dc:type
           rdf:resource="http://purl.org/dc/dcmitype/StillImage" />
        <dc:title />
      </cc:Work>
    </rdf:RDF>
  </metadata>
  <g
     inkscape:label="Layer 1"
     inkscape:groupmode="layer"
     id="layer1"
     transform="translate(0,-270.54169)">
    <g
       id="g4528"
       transform="translate(48.947808,-12.89824)">
      <path
         sodipodi:nodetypes="ssssssssscccccscc"
         style="opacity:1;fill:url(#linearGradient4520);fill-opacity:1;stroke:none;stroke-width:0;stroke-miterlimit:4;stroke-dasharray:none;stroke-dashoffset:0;stroke-opacity:0.92156863"
         d="m -43.085731,309.92323 c -3.530669,0 -5.830664,-9.32113 -5.830664,-11.3962 v -1.75331 c 0,-2.07507 2.299995,-13.30882 5.830664,-13.30882 h 17.627628 c 3.530671,0 5.413901,8.32823 5.413901,13.85462 v 1.06298 c 0,2.17367 -1.88323,11.54072 -5.413901,11.54072 z m 17.937441,-1.359 c 0.194802,-0.0335 0.388425,-0.12449 0.578763,-0.27195 1.848879,-1.43241 3.012721,-7.7837 2.599878,-14.188 l -9.6e-4,-0.0172 c -0.415613,-6.40224 -2.250687,-10.4263 -4.099294,-8.98913 -1.848575,1.43717 -3.011054,7.79147 -2.596831,14.19473 0.365136,5.64445 1.850545,9.55864 3.518554,9.27173 z"
         id="path4760"
         inkscape:connector-curvature="0" />
      <path
         inkscape:connector-curvature="0"
         id="path4522"
         d="m -43.085731,283.46489 c -3.530669,0 -5.830664,9.32112 -5.830664,11.3962 v 1.75331 c 0,2.07507 2.299995,13.30882 5.830664,13.30882 h 17.627628 c 3.530671,0 5.413901,-8.32823 5.413901,-13.85462 v -1.06298 c 0,-2.17367 -1.88323,-11.54072 -5.413901,-11.54072 z m 17.937441,1.35899 c 0.194802,0.0335 0.388425,0.12449 0.578763,0.27196 1.848879,1.43241 3.012721,7.7837 2.599878,14.18799 l -9.6e-4,0.0172 c -0.415613,6.40224 -2.250687,10.42631 -4.099294,8.98913 -1.848575,-1.43716 -3.011054,-7.79147 -2.596831,-14.19473 0.365136,-5.64445 1.850545,-9.55864 3.518554,-9.27173 z"
         style="opacity:1;fill:url(#linearGradient4524);fill-opacity:1;stroke:none;stroke-width:0;stroke-miterlimit:4;stroke-dasharray:none;stroke-dashoffset:0;stroke-opacity:0.92156863"
         sodipodi:nodetypes="ssssssssscccccscc" />
    </g>
    <ellipse
       style="opacity:0.55100002;fill:#0b75b7;fill-opacity:0;stroke:none;stroke-width:3;stroke-miterlimit:4;stroke-dasharray:none;stroke-dashoffset:0;stroke-opacity:0.92156863"
       id="path4489"
       cx="-31.206537"
       cy="277.49603"
       rx="4.0224066"
       ry="4.3498116" />
    <circle
       style="opacity:0.55100002;fill:#0b75b7;fill-opacity:0;stroke:none;stroke-width:3;stroke-miterlimit:4;stroke-dasharray:none;stroke-dashoffset:0;stroke-opacity:0.92156863"
       id="path4493"
       cx="-31.300081"
       cy="281.56522"
       r="3.8353179" />
    <ellipse
       ry="11.919644"
       rx="3.579555"
       cy="283.75137"
       cx="23.564608"
       id="ellipse4776"
       style="opacity:1;fill:url(#linearGradient4778);fill-opacity:1;stroke:none;stroke-width:2.48823905;stroke-miterlimit:4;stroke-dasharray:none;stroke-dashoffset:0;stroke-opacity:0.92156863" />
    <path
       style="opacity:1;fill:#bedf2a;fill-opacity:1;stroke:none;stroke-width:2.99250364;stroke-miterlimit:4;stroke-dasharray:none;stroke-dashoffset:0;stroke-opacity:0.92156863"
       d="m 23.942817,270.65805 c -2.956383,0 -4.995655,4.66551 -5.058352,13.18763 -0.05273,7.16642 2.105895,13.10678 5.058352,13.05508 3.684278,-0.0645 5.107414,-9.40216 5.189738,-13.18762 0.100599,-4.62594 -2.233356,-13.05509 -5.189738,-13.05509 z m -0.143189,1.26741 c 2.028141,0 2.953673,7.45146 3.163371,11.83117 -0.05648,3.43057 -0.914586,11.61162 -3.163371,11.95129 -2.003648,0.30264 -3.506603,-5.33659 -3.470432,-11.83118 0.04301,-7.7232 1.442288,-11.95128 3.470432,-11.95128 z"
       id="path4785"
       inkscape:connector-curvature="0"
       sodipodi:nodetypes="sscssscsss" />
  </g>
</svg>
