<?xml version="1.0" encoding="UTF-8" standalone="no"?>
<!-- Created with Inkscape (http://www.inkscape.org/) -->

<svg
   xmlns:dc="http://purl.org/dc/elements/1.1/"
   xmlns:cc="http://creativecommons.org/ns#"
   xmlns:rdf="http://www.w3.org/1999/02/22-rdf-syntax-ns#"
   xmlns:svg="http://www.w3.org/2000/svg"
   xmlns="http://www.w3.org/2000/svg"
   xmlns:sodipodi="http://sodipodi.sourceforge.net/DTD/sodipodi-0.dtd"
   xmlns:inkscape="http://www.inkscape.org/namespaces/inkscape"
   width="16"
   height="16"
   viewBox="0 0 4.2333332 4.2333335"
   version="1.1"
   id="svg8"
   inkscape:version="0.92.0 r15299"
   sodipodi:docname="edm模块.svg"
   inkscape:export-filename="C:\Users\Impossible\Desktop\inspur\svg\图标\分纤箱\edm模块.png"
   inkscape:export-xdpi="96.000008"
   inkscape:export-ydpi="96.000008">
  <defs
     id="defs2" />
  <sodipodi:namedview
     id="base"
     pagecolor="#ffffff"
     bordercolor="#666666"
     borderopacity="1.0"
     inkscape:pageopacity="0.0"
     inkscape:pageshadow="2"
     inkscape:zoom="22.4"
     inkscape:cx="15.199598"
     inkscape:cy="8.7774331"
     inkscape:document-units="mm"
     inkscape:current-layer="layer1"
     showgrid="false"
     units="px"
     inkscape:pagecheckerboard="true"
     inkscape:window-width="1366"
     inkscape:window-height="705"
     inkscape:window-x="-8"
     inkscape:window-y="-8"
     inkscape:window-maximized="1"
     inkscape:snap-global="true"
     showguides="false" />
  <metadata
     id="metadata5">
    <rdf:RDF>
      <cc:Work
         rdf:about="">
        <dc:format>image/svg+xml</dc:format>
        <dc:type
           rdf:resource="http://purl.org/dc/dcmitype/StillImage" />
        <dc:title />
      </cc:Work>
    </rdf:RDF>
  </metadata>
  <g
     inkscape:label="Layer 1"
     inkscape:groupmode="layer"
     id="layer1"
     transform="translate(0,-292.76665)">
    <g
       id="g12100">
      <rect
         y="293.35306"
         x="0.74674487"
         height="0.29862002"
         width="2.6636477"
         id="rect12060"
         style="opacity:1;fill:#808080;fill-opacity:0.98901098;stroke:#000000;stroke-width:0;stroke-miterlimit:4;stroke-dasharray:none;stroke-dashoffset:0;stroke-opacity:1" />
      <path
         inkscape:connector-curvature="0"
         id="rect12064"
         d="m 0.87074787,293.4064 v 0.19431 H 3.2866211 v -0.19431 z m 0.0728638,0.0176 H 1.1022583 v 0.15917 H 0.94361163 Z m 0.23564453,0 h 0.1586466 v 0.15917 H 1.1792562 Z m 0.2351277,0 h 0.1586467 v 0.15917 H 1.4143839 Z m 0.2351278,0 h 0.1586466 v 0.15917 H 1.6495117 Z m 0.2351278,0 h 0.1586466 v 0.15917 H 1.8846395 Z m 0.2356445,0 h 0.1586466 v 0.15917 H 2.120284 Z m 0.2351278,0 h 0.1586466 v 0.15917 H 2.3554118 Z m 0.2351277,0 h 0.1586467 v 0.15917 H 2.5905395 Z m 0.2351279,0 H 2.984314 v 0.15917 H 2.8256674 Z m 0.2356443,0 h 0.1586468 v 0.15917 H 3.0613117 Z"
         style="opacity:1;fill:#ffffff;fill-opacity:0.98901098;stroke:#000000;stroke-width:0;stroke-miterlimit:4;stroke-dasharray:none;stroke-dashoffset:0;stroke-opacity:1" />
    </g>
    <g
       id="g12106"
       transform="translate(0,0.29862002)">
      <rect
         style="opacity:1;fill:#808080;fill-opacity:0.98901098;stroke:#000000;stroke-width:0;stroke-miterlimit:4;stroke-dasharray:none;stroke-dashoffset:0;stroke-opacity:1"
         id="rect12102"
         width="2.6636477"
         height="0.29862002"
         x="0.74674487"
         y="293.35306" />
      <path
         style="opacity:1;fill:#ffffff;fill-opacity:0.98901098;stroke:#000000;stroke-width:0;stroke-miterlimit:4;stroke-dasharray:none;stroke-dashoffset:0;stroke-opacity:1"
         d="m 0.87074787,293.4064 v 0.19431 H 3.2866211 v -0.19431 z m 0.0728638,0.0176 H 1.1022583 v 0.15917 H 0.94361163 Z m 0.23564453,0 h 0.1586466 v 0.15917 H 1.1792562 Z m 0.2351277,0 h 0.1586467 v 0.15917 H 1.4143839 Z m 0.2351278,0 h 0.1586466 v 0.15917 H 1.6495117 Z m 0.2351278,0 h 0.1586466 v 0.15917 H 1.8846395 Z m 0.2356445,0 h 0.1586466 v 0.15917 H 2.120284 Z m 0.2351278,0 h 0.1586466 v 0.15917 H 2.3554118 Z m 0.2351277,0 h 0.1586467 v 0.15917 H 2.5905395 Z m 0.2351279,0 H 2.984314 v 0.15917 H 2.8256674 Z m 0.2356443,0 h 0.1586468 v 0.15917 H 3.0613117 Z"
         id="path12104"
         inkscape:connector-curvature="0" />
    </g>
    <g
       transform="translate(0,0.59724004)"
       id="g12112">
      <rect
         y="293.35306"
         x="0.74674487"
         height="0.29862002"
         width="2.6636477"
         id="rect12108"
         style="opacity:1;fill:#808080;fill-opacity:0.98901098;stroke:#000000;stroke-width:0;stroke-miterlimit:4;stroke-dasharray:none;stroke-dashoffset:0;stroke-opacity:1" />
      <path
         inkscape:connector-curvature="0"
         id="path12110"
         d="m 0.87074787,293.4064 v 0.19431 H 3.2866211 v -0.19431 z m 0.0728638,0.0176 H 1.1022583 v 0.15917 H 0.94361163 Z m 0.23564453,0 h 0.1586466 v 0.15917 H 1.1792562 Z m 0.2351277,0 h 0.1586467 v 0.15917 H 1.4143839 Z m 0.2351278,0 h 0.1586466 v 0.15917 H 1.6495117 Z m 0.2351278,0 h 0.1586466 v 0.15917 H 1.8846395 Z m 0.2356445,0 h 0.1586466 v 0.15917 H 2.120284 Z m 0.2351278,0 h 0.1586466 v 0.15917 H 2.3554118 Z m 0.2351277,0 h 0.1586467 v 0.15917 H 2.5905395 Z m 0.2351279,0 H 2.984314 v 0.15917 H 2.8256674 Z m 0.2356443,0 h 0.1586468 v 0.15917 H 3.0613117 Z"
         style="opacity:1;fill:#ffffff;fill-opacity:0.98901098;stroke:#000000;stroke-width:0;stroke-miterlimit:4;stroke-dasharray:none;stroke-dashoffset:0;stroke-opacity:1" />
    </g>
    <g
       id="g12118"
       transform="translate(0,0.89586006)">
      <rect
         style="opacity:1;fill:#808080;fill-opacity:0.98901098;stroke:#000000;stroke-width:0;stroke-miterlimit:4;stroke-dasharray:none;stroke-dashoffset:0;stroke-opacity:1"
         id="rect12114"
         width="2.6636477"
         height="0.29862002"
         x="0.74674487"
         y="293.35306" />
      <path
         style="opacity:1;fill:#ffffff;fill-opacity:0.98901098;stroke:#000000;stroke-width:0;stroke-miterlimit:4;stroke-dasharray:none;stroke-dashoffset:0;stroke-opacity:1"
         d="m 0.87074787,293.4064 v 0.19431 H 3.2866211 v -0.19431 z m 0.0728638,0.0176 H 1.1022583 v 0.15917 H 0.94361163 Z m 0.23564453,0 h 0.1586466 v 0.15917 H 1.1792562 Z m 0.2351277,0 h 0.1586467 v 0.15917 H 1.4143839 Z m 0.2351278,0 h 0.1586466 v 0.15917 H 1.6495117 Z m 0.2351278,0 h 0.1586466 v 0.15917 H 1.8846395 Z m 0.2356445,0 h 0.1586466 v 0.15917 H 2.120284 Z m 0.2351278,0 h 0.1586466 v 0.15917 H 2.3554118 Z m 0.2351277,0 h 0.1586467 v 0.15917 H 2.5905395 Z m 0.2351279,0 H 2.984314 v 0.15917 H 2.8256674 Z m 0.2356443,0 h 0.1586468 v 0.15917 H 3.0613117 Z"
         id="path12116"
         inkscape:connector-curvature="0" />
    </g>
    <g
       transform="translate(0,1.1944801)"
       id="g12124">
      <rect
         y="293.35306"
         x="0.74674487"
         height="0.29862002"
         width="2.6636477"
         id="rect12120"
         style="opacity:1;fill:#808080;fill-opacity:0.98901098;stroke:#000000;stroke-width:0;stroke-miterlimit:4;stroke-dasharray:none;stroke-dashoffset:0;stroke-opacity:1" />
      <path
         inkscape:connector-curvature="0"
         id="path12122"
         d="m 0.87074787,293.4064 v 0.19431 H 3.2866211 v -0.19431 z m 0.0728638,0.0176 H 1.1022583 v 0.15917 H 0.94361163 Z m 0.23564453,0 h 0.1586466 v 0.15917 H 1.1792562 Z m 0.2351277,0 h 0.1586467 v 0.15917 H 1.4143839 Z m 0.2351278,0 h 0.1586466 v 0.15917 H 1.6495117 Z m 0.2351278,0 h 0.1586466 v 0.15917 H 1.8846395 Z m 0.2356445,0 h 0.1586466 v 0.15917 H 2.120284 Z m 0.2351278,0 h 0.1586466 v 0.15917 H 2.3554118 Z m 0.2351277,0 h 0.1586467 v 0.15917 H 2.5905395 Z m 0.2351279,0 H 2.984314 v 0.15917 H 2.8256674 Z m 0.2356443,0 h 0.1586468 v 0.15917 H 3.0613117 Z"
         style="opacity:1;fill:#ffffff;fill-opacity:0.98901098;stroke:#000000;stroke-width:0;stroke-miterlimit:4;stroke-dasharray:none;stroke-dashoffset:0;stroke-opacity:1" />
    </g>
    <g
       id="g12130"
       transform="translate(0,1.4931001)">
      <rect
         style="opacity:1;fill:#808080;fill-opacity:0.98901098;stroke:#000000;stroke-width:0;stroke-miterlimit:4;stroke-dasharray:none;stroke-dashoffset:0;stroke-opacity:1"
         id="rect12126"
         width="2.6636477"
         height="0.29862002"
         x="0.74674487"
         y="293.35306" />
      <path
         style="opacity:1;fill:#ffffff;fill-opacity:0.98901098;stroke:#000000;stroke-width:0;stroke-miterlimit:4;stroke-dasharray:none;stroke-dashoffset:0;stroke-opacity:1"
         d="m 0.87074787,293.4064 v 0.19431 H 3.2866211 v -0.19431 z m 0.0728638,0.0176 H 1.1022583 v 0.15917 H 0.94361163 Z m 0.23564453,0 h 0.1586466 v 0.15917 H 1.1792562 Z m 0.2351277,0 h 0.1586467 v 0.15917 H 1.4143839 Z m 0.2351278,0 h 0.1586466 v 0.15917 H 1.6495117 Z m 0.2351278,0 h 0.1586466 v 0.15917 H 1.8846395 Z m 0.2356445,0 h 0.1586466 v 0.15917 H 2.120284 Z m 0.2351278,0 h 0.1586466 v 0.15917 H 2.3554118 Z m 0.2351277,0 h 0.1586467 v 0.15917 H 2.5905395 Z m 0.2351279,0 H 2.984314 v 0.15917 H 2.8256674 Z m 0.2356443,0 h 0.1586468 v 0.15917 H 3.0613117 Z"
         id="path12128"
         inkscape:connector-curvature="0" />
    </g>
    <g
       transform="translate(0,1.7917201)"
       id="g12136">
      <rect
         y="293.35306"
         x="0.74674487"
         height="0.29862002"
         width="2.6636477"
         id="rect12132"
         style="opacity:1;fill:#808080;fill-opacity:0.98901098;stroke:#000000;stroke-width:0;stroke-miterlimit:4;stroke-dasharray:none;stroke-dashoffset:0;stroke-opacity:1" />
      <path
         inkscape:connector-curvature="0"
         id="path12134"
         d="m 0.87074787,293.4064 v 0.19431 H 3.2866211 v -0.19431 z m 0.0728638,0.0176 H 1.1022583 v 0.15917 H 0.94361163 Z m 0.23564453,0 h 0.1586466 v 0.15917 H 1.1792562 Z m 0.2351277,0 h 0.1586467 v 0.15917 H 1.4143839 Z m 0.2351278,0 h 0.1586466 v 0.15917 H 1.6495117 Z m 0.2351278,0 h 0.1586466 v 0.15917 H 1.8846395 Z m 0.2356445,0 h 0.1586466 v 0.15917 H 2.120284 Z m 0.2351278,0 h 0.1586466 v 0.15917 H 2.3554118 Z m 0.2351277,0 h 0.1586467 v 0.15917 H 2.5905395 Z m 0.2351279,0 H 2.984314 v 0.15917 H 2.8256674 Z m 0.2356443,0 h 0.1586468 v 0.15917 H 3.0613117 Z"
         style="opacity:1;fill:#ffffff;fill-opacity:0.98901098;stroke:#000000;stroke-width:0;stroke-miterlimit:4;stroke-dasharray:none;stroke-dashoffset:0;stroke-opacity:1" />
    </g>
    <g
       id="g12142"
       transform="translate(0,2.0903402)">
      <rect
         style="opacity:1;fill:#808080;fill-opacity:0.98901098;stroke:#000000;stroke-width:0;stroke-miterlimit:4;stroke-dasharray:none;stroke-dashoffset:0;stroke-opacity:1"
         id="rect12138"
         width="2.6636477"
         height="0.29862002"
         x="0.74674487"
         y="293.35306" />
      <path
         style="opacity:1;fill:#ffffff;fill-opacity:0.98901098;stroke:#000000;stroke-width:0;stroke-miterlimit:4;stroke-dasharray:none;stroke-dashoffset:0;stroke-opacity:1"
         d="m 0.87074787,293.4064 v 0.19431 H 3.2866211 v -0.19431 z m 0.0728638,0.0176 H 1.1022583 v 0.15917 H 0.94361163 Z m 0.23564453,0 h 0.1586466 v 0.15917 H 1.1792562 Z m 0.2351277,0 h 0.1586467 v 0.15917 H 1.4143839 Z m 0.2351278,0 h 0.1586466 v 0.15917 H 1.6495117 Z m 0.2351278,0 h 0.1586466 v 0.15917 H 1.8846395 Z m 0.2356445,0 h 0.1586466 v 0.15917 H 2.120284 Z m 0.2351278,0 h 0.1586466 v 0.15917 H 2.3554118 Z m 0.2351277,0 h 0.1586467 v 0.15917 H 2.5905395 Z m 0.2351279,0 H 2.984314 v 0.15917 H 2.8256674 Z m 0.2356443,0 h 0.1586468 v 0.15917 H 3.0613117 Z"
         id="path12140"
         inkscape:connector-curvature="0" />
    </g>
    <g
       transform="translate(0,2.3889602)"
       id="g12148">
      <rect
         y="293.35306"
         x="0.74674487"
         height="0.29862002"
         width="2.6636477"
         id="rect12144"
         style="opacity:1;fill:#808080;fill-opacity:0.98901098;stroke:#000000;stroke-width:0;stroke-miterlimit:4;stroke-dasharray:none;stroke-dashoffset:0;stroke-opacity:1" />
      <path
         inkscape:connector-curvature="0"
         id="path12146"
         d="m 0.87074787,293.4064 v 0.19431 H 3.2866211 v -0.19431 z m 0.0728638,0.0176 H 1.1022583 v 0.15917 H 0.94361163 Z m 0.23564453,0 h 0.1586466 v 0.15917 H 1.1792562 Z m 0.2351277,0 h 0.1586467 v 0.15917 H 1.4143839 Z m 0.2351278,0 h 0.1586466 v 0.15917 H 1.6495117 Z m 0.2351278,0 h 0.1586466 v 0.15917 H 1.8846395 Z m 0.2356445,0 h 0.1586466 v 0.15917 H 2.120284 Z m 0.2351278,0 h 0.1586466 v 0.15917 H 2.3554118 Z m 0.2351277,0 h 0.1586467 v 0.15917 H 2.5905395 Z m 0.2351279,0 H 2.984314 v 0.15917 H 2.8256674 Z m 0.2356443,0 h 0.1586468 v 0.15917 H 3.0613117 Z"
         style="opacity:1;fill:#ffffff;fill-opacity:0.98901098;stroke:#000000;stroke-width:0;stroke-miterlimit:4;stroke-dasharray:none;stroke-dashoffset:0;stroke-opacity:1" />
    </g>
    <g
       id="g12154"
       transform="translate(0,2.6875802)">
      <rect
         style="opacity:1;fill:#808080;fill-opacity:0.98901098;stroke:#000000;stroke-width:0;stroke-miterlimit:4;stroke-dasharray:none;stroke-dashoffset:0;stroke-opacity:1"
         id="rect12150"
         width="2.6636477"
         height="0.29862002"
         x="0.74674487"
         y="293.35306" />
      <path
         style="opacity:1;fill:#ffffff;fill-opacity:0.98901098;stroke:#000000;stroke-width:0;stroke-miterlimit:4;stroke-dasharray:none;stroke-dashoffset:0;stroke-opacity:1"
         d="m 0.87074787,293.4064 v 0.19431 H 3.2866211 v -0.19431 z m 0.0728638,0.0176 H 1.1022583 v 0.15917 H 0.94361163 Z m 0.23564453,0 h 0.1586466 v 0.15917 H 1.1792562 Z m 0.2351277,0 h 0.1586467 v 0.15917 H 1.4143839 Z m 0.2351278,0 h 0.1586466 v 0.15917 H 1.6495117 Z m 0.2351278,0 h 0.1586466 v 0.15917 H 1.8846395 Z m 0.2356445,0 h 0.1586466 v 0.15917 H 2.120284 Z m 0.2351278,0 h 0.1586466 v 0.15917 H 2.3554118 Z m 0.2351277,0 h 0.1586467 v 0.15917 H 2.5905395 Z m 0.2351279,0 H 2.984314 v 0.15917 H 2.8256674 Z m 0.2356443,0 h 0.1586468 v 0.15917 H 3.0613117 Z"
         id="path12152"
         inkscape:connector-curvature="0" />
    </g>
  </g>
</svg>
