<?xml version="1.0" encoding="UTF-8" standalone="no"?>
<!-- Created with Inkscape (http://www.inkscape.org/) -->

<svg
   xmlns:dc="http://purl.org/dc/elements/1.1/"
   xmlns:cc="http://creativecommons.org/ns#"
   xmlns:rdf="http://www.w3.org/1999/02/22-rdf-syntax-ns#"
   xmlns:svg="http://www.w3.org/2000/svg"
   xmlns="http://www.w3.org/2000/svg"
   xmlns:sodipodi="http://sodipodi.sourceforge.net/DTD/sodipodi-0.dtd"
   xmlns:inkscape="http://www.inkscape.org/namespaces/inkscape"
   width="16"
   height="16"
   viewBox="0 0 4.2333332 4.2333335"
   version="1.1"
   id="svg8"
   inkscape:version="0.92.0 r15299"
   sodipodi:docname="分类.svg">
  <defs
     id="defs2">
    <inkscape:perspective
       sodipodi:type="inkscape:persp3d"
       inkscape:vp_x="0 : 2.1166667 : 1"
       inkscape:vp_y="0 : 1000 : 0"
       inkscape:vp_z="4.2333332 : 2.1166667 : 1"
       inkscape:persp3d-origin="2.1166666 : 1.4111112 : 1"
       id="perspective4592" />
  </defs>
  <sodipodi:namedview
     id="base"
     pagecolor="#ffffff"
     bordercolor="#666666"
     borderopacity="1.0"
     inkscape:pageopacity="0.0"
     inkscape:pageshadow="2"
     inkscape:zoom="7.9195959"
     inkscape:cx="16.587299"
     inkscape:cy="18.022385"
     inkscape:document-units="mm"
     inkscape:current-layer="layer1"
     showgrid="false"
     units="px"
     inkscape:pagecheckerboard="true"
     inkscape:snap-global="false"
     inkscape:window-width="1366"
     inkscape:window-height="705"
     inkscape:window-x="-8"
     inkscape:window-y="-8"
     inkscape:window-maximized="1" />
  <metadata
     id="metadata5">
    <rdf:RDF>
      <cc:Work
         rdf:about="">
        <dc:format>image/svg+xml</dc:format>
        <dc:type
           rdf:resource="http://purl.org/dc/dcmitype/StillImage" />
        <dc:title></dc:title>
      </cc:Work>
    </rdf:RDF>
  </metadata>
  <g
     inkscape:label="Layer 1"
     inkscape:groupmode="layer"
     id="layer1"
     transform="translate(0,-292.76665)">
    <g
       id="g16227"
       transform="matrix(0.655735,0,0,0.6358684,11.926022,112.0037)">
      <rect
         style="opacity:1;fill:#eeffaa;fill-opacity:0.86813187;stroke:#000000;stroke-width:0;stroke-miterlimit:4;stroke-dasharray:none;stroke-dashoffset:0;stroke-opacity:1"
         id="rect16140"
         width="0.43431303"
         height="4.6905632"
         x="-17.205475"
         y="285.67441" />
      <g
         transform="translate(0,0.1889881)"
         id="g16200">
        <path
           style="opacity:1;fill:#ab1d55;fill-opacity:1;stroke:#000000;stroke-width:0;stroke-miterlimit:4;stroke-dasharray:none;stroke-dashoffset:0;stroke-opacity:1"
           d="m -15.925095,288.82315 h 3.892338 c 0.477976,0 -1.105536,0.26087 -1.105536,0.58491 0,0.32404 1.583512,0.58491 1.105536,0.58491 h -3.892338 c -0.477975,0 -0.862772,-0.26087 -0.862772,-0.58491 0,-0.32404 0.384797,-0.58491 0.862772,-0.58491 z"
           id="rect16142"
           inkscape:connector-curvature="0"
           sodipodi:nodetypes="sssssss" />
        <path
           style="opacity:1;fill:#ff2a7f;fill-opacity:1;stroke:#000000;stroke-width:0;stroke-miterlimit:4;stroke-dasharray:none;stroke-dashoffset:0;stroke-opacity:1"
           d="m -15.977989,289.0155 h 3.054979 c 0.266931,0 -0.830381,0.20848 -0.830381,0.42597 0,0.21747 1.097312,0.35914 0.830381,0.35914 h -3.054979 c -0.266932,0 -0.481826,-0.17507 -0.481826,-0.39255 0,-0.21749 0.214894,-0.39256 0.481826,-0.39256 z"
           id="rect16144"
           inkscape:connector-curvature="0"
           sodipodi:nodetypes="sssssss" />
      </g>
      <g
         transform="matrix(1.1488469,0,0,0.99999993,2.4988224,0.18900707)"
         id="g16180">
        <path
           style="opacity:1;fill:#3b494c;fill-opacity:1;stroke:#000000;stroke-width:0;stroke-miterlimit:4;stroke-dasharray:none;stroke-dashoffset:0;stroke-opacity:1"
           d="m -16.138778,287.41092 h 2.443597 c 0.359595,0 -0.587034,0.27782 -0.587034,0.54477 0,0.26695 0.946629,0.54477 0.587034,0.54477 h -2.443597 c -0.359595,0 -0.649089,-0.24297 -0.649089,-0.54477 0,-0.3018 0.289494,-0.54477 0.649089,-0.54477 z"
           id="rect16148"
           inkscape:connector-curvature="0"
           sodipodi:nodetypes="ssassss" />
        <path
           style="opacity:1;fill:#698389;fill-opacity:1;stroke:#000000;stroke-width:0;stroke-miterlimit:4;stroke-dasharray:none;stroke-dashoffset:0;stroke-opacity:1"
           d="m -16.161454,287.56314 h 1.887591 c 0.217474,0 -0.476074,0.17508 -0.476074,0.39255 0,0.21748 0.693548,0.39256 0.476074,0.39256 h -1.887591 c -0.217474,0 -0.392553,-0.17508 -0.392553,-0.39256 0,-0.21747 0.175079,-0.39255 0.392553,-0.39255 z"
           id="rect16150"
           inkscape:connector-curvature="0"
           sodipodi:nodetypes="sssssss" />
      </g>
      <g
         transform="translate(0,0.1889881)"
         id="g16188">
        <path
           style="opacity:1;fill:#879296;fill-opacity:1;stroke:#000000;stroke-width:0;stroke-miterlimit:4;stroke-dasharray:none;stroke-dashoffset:0;stroke-opacity:1"
           d="m -16.133665,285.96671 h 1.66497 c 0.362428,0 -0.414876,0.23932 -0.414876,0.53659 0,0.29727 0.777304,0.53659 0.414876,0.53659 h -1.66497 c -0.362427,0 -0.654202,-0.23932 -0.654202,-0.53659 0,-0.29727 0.291775,-0.53659 0.654202,-0.53659 z"
           id="rect16154"
           inkscape:connector-curvature="0"
           sodipodi:nodetypes="sssssss" />
        <path
           style="opacity:1;fill:#d3e3e9;fill-opacity:1;stroke:#000000;stroke-width:0;stroke-miterlimit:4;stroke-dasharray:none;stroke-dashoffset:0;stroke-opacity:1"
           d="m -16.194863,286.11075 h 1.252826 c 0.217473,0 -0.375848,0.17508 -0.375848,0.39255 0,0.21747 0.593321,0.39255 0.375848,0.39255 h -1.252826 c -0.217474,0 -0.392553,-0.17508 -0.392553,-0.39255 0,-0.21747 0.175079,-0.39255 0.392553,-0.39255 z"
           id="rect16156"
           inkscape:connector-curvature="0"
           sodipodi:nodetypes="sssssss" />
      </g>
      <path
         sodipodi:type="spiral"
         style="fill:#ffd5f6;fill-opacity:1;fill-rule:evenodd;stroke:#000000;stroke-width:0.07096913;stroke-miterlimit:4;stroke-dasharray:none"
         id="path16162"
         sodipodi:cx="-17.017578"
         sodipodi:cy="285.18576"
         sodipodi:expansion="0.99000001"
         sodipodi:revolution="3.5699999"
         sodipodi:radius="0.87409413"
         sodipodi:argument="-31.952402"
         sodipodi:t0="0"
         d="m -17.017578,285.18576 c 0.03263,-0.0194 0.04228,0.0342 0.03213,0.054 -0.02708,0.0531 -0.101503,0.0437 -0.139441,0.01 -0.0675,-0.0603 -0.04994,-0.16718 0.01198,-0.22413 0.09054,-0.0833 0.23356,-0.0567 0.308476,0.0336 0.09957,0.11996 0.06364,0.30009 -0.05506,0.39257 -0.149041,0.11612 -0.366651,0.0707 -0.476498,-0.0765 -0.132788,-0.17793 -0.07782,-0.43318 0.09785,-0.56027 0.206689,-0.14952 0.499665,-0.085 0.643907,0.11918 0.166294,0.23537 0.09215,0.5661 -0.140468,0.72744 -0.26398,0.18308 -0.632487,0.0993 -0.810869,-0.16173 -0.199889,-0.29254 -0.106541,-0.69882 0.182955,-0.89421 0.321061,-0.2167 0.76511,-0.11375 0.977482,0.20416 0.233507,0.34954 0.120953,0.83135 -0.225346,1.06068 -0.377993,0.25031 -0.897548,0.12816 -1.143807,-0.24651 -0.06984,-0.10626 -0.115467,-0.22786 -0.133303,-0.35374" />
      <path
         inkscape:transform-center-y="-0.024731693"
         inkscape:transform-center-x="0.0043381359"
         d="m -14.959127,288.37298 -0.181329,-0.0714 -0.173932,0.0879 0.01184,-0.19451 -0.137322,-0.13826 0.188649,-0.0488 0.08906,-0.17332 0.104747,0.16432 0.192365,0.0311 -0.123912,0.1504 z"
         inkscape:randomized="0"
         inkscape:rounded="0"
         inkscape:flatsided="false"
         sodipodi:arg2="1.5243739"
         sodipodi:arg1="0.89605538"
         sodipodi:r2="0.16504173"
         sodipodi:r1="0.30252853"
         sodipodi:cy="288.13675"
         sodipodi:cx="-15.148115"
         sodipodi:sides="5"
         id="path16202"
         style="opacity:1;fill:#eeff39;fill-opacity:1;stroke:#000000;stroke-width:0.05;stroke-miterlimit:4;stroke-dasharray:none;stroke-dashoffset:0;stroke-opacity:1"
         sodipodi:type="star" />
      <path
         sodipodi:type="star"
         style="opacity:1;fill:#eeff39;fill-opacity:1;stroke:#000000;stroke-width:0.05;stroke-miterlimit:4;stroke-dasharray:none;stroke-dashoffset:0;stroke-opacity:1"
         id="path16204"
         sodipodi:sides="5"
         sodipodi:cx="-13.808901"
         sodipodi:cy="289.60675"
         sodipodi:r1="0.30252853"
         sodipodi:r2="0.16504173"
         sodipodi:arg1="0.89605538"
         sodipodi:arg2="1.5243739"
         inkscape:flatsided="false"
         inkscape:rounded="0"
         inkscape:randomized="0"
         d="m -13.619913,289.84299 -0.181329,-0.0714 -0.173931,0.0879 0.01184,-0.19451 -0.137322,-0.13826 0.188649,-0.0489 0.08906,-0.17332 0.104748,0.16432 0.192365,0.0311 -0.123912,0.1504 z"
         inkscape:transform-center-x="0.0043381359"
         inkscape:transform-center-y="-0.024731693" />
      <path
         sodipodi:nodetypes="cccc"
         inkscape:connector-curvature="0"
         id="path16208"
         d="m -17.205475,290.36497 h 0.434313 l -0.200452,0.4377 z"
         style="fill:#eeffaa;fill-opacity:0.87912089;stroke:#000000;stroke-width:0;stroke-linecap:butt;stroke-linejoin:miter;stroke-miterlimit:4;stroke-dasharray:none;stroke-opacity:1" />
      <path
         sodipodi:type="star"
         style="opacity:1;fill:#eeff39;fill-opacity:1;stroke:#000000;stroke-width:0.05;stroke-miterlimit:4;stroke-dasharray:none;stroke-dashoffset:0;stroke-opacity:1"
         id="path16210"
         sodipodi:sides="5"
         sodipodi:cx="-16.209881"
         sodipodi:cy="286.7121"
         sodipodi:r1="0.30252853"
         sodipodi:r2="0.16504173"
         sodipodi:arg1="0.89605538"
         sodipodi:arg2="1.5243739"
         inkscape:flatsided="false"
         inkscape:rounded="0"
         inkscape:randomized="0"
         d="m -16.020893,286.94833 -0.181329,-0.0714 -0.173931,0.0879 0.01184,-0.19451 -0.137322,-0.13827 0.188649,-0.0488 0.08906,-0.17333 0.104748,0.16433 0.192365,0.0311 -0.123912,0.1504 z"
         inkscape:transform-center-x="0.0043381359"
         inkscape:transform-center-y="-0.024731693" />
    </g>
  </g>
</svg>
